<svg role="img" viewBox="0 0 24 24" xmlns="http://www.w3.org/2000/svg">
    <title>Python</title>
    <path fill="#3776AB"
          d="M12 0c-1.084 0-2.216.098-3.168.277-2.837.528-3.33 1.63-3.33 3.69v2.71h6.582v.906H3.668c-2.067 0-3.88 1.262-4.433 3.406-.668 2.52-.698 4.095 0 6.717.532 2.028 1.81 3.406 3.88 3.406h1.29v-1.71c0-2.33 1.993-4.34 4.433-4.34h6.355c1.976 0 3.49-1.703 3.49-3.69V3.967c0-1.972-1.545-3.313-3.49-3.69C14.134.098 12.917 0 12 0zm-3.22 1.715c.532 0 .967.445.967.996 0 .54-.435.995-.967.995a.995.995 0 1 1 0-1.99z"/>
    <path fill="#FFD43B"
          d="M21.45 6.69v1.71c0 2.33-2.005 4.34-4.433 4.34H10.66c-1.976 0-3.49 1.703-3.49 3.69v6.04c0 1.972 1.545 3.315 3.49 3.69 2.22.414 4.36.48 6.562 0 1.747-.382 3.33-1.155 3.33-3.69v-2.71h-6.58v-.906h6.58c2.07 0 3.598-1.24 4.433-3.406.926-2.55.876-4.084 0-6.717-.52-2.027-2.043-3.406-4.433-3.406h-1.29zm-3.22 14.825c.532 0 .967.445.967.996 0 .54-.435.995-.967.995a.995.995 0 1 1 0-1.99z"/>
</svg>
