<svg
        xmlns="http://www.w3.org/2000/svg"
        width="48pt"
        height="48pt"
        viewBox="0 0 512 512"
>
    <path
            d="M176 128L80 240c-8 8.5-8 22 0 30.5l96 112c8.5 9.5 22.5 10 30.5 1.5s9.5-22.5 1.5-30.5L121 256l86-96c8.5-9.5 8-23-1.5-30.5-9.5-8.5-23-8-31.5 1.5zM336 128c-8.5-9.5-22.5-10-30.5-1.5-9.5 8.5-10 22.5-1.5 30.5l86 96-86 96c-8.5 9.5-8 23 1.5 30.5 9.5 8.5 23 8 31.5-1.5l96-112c8-8.5 8-22 0-30.5L336 128z"
            stroke="black"
            fill="white"
    />
</svg>
